<?xml version="1.0" encoding="utf-8"?>
<!-- Generated by Mocodo 4.3.3 -->
<svg width="486" height="469" viewBox="0 0 486 469" xmlns="http://www.w3.org/2000/svg">
<rect x="0" y="0" width="486" height="469" fill="#FFFFFF" stroke="none" stroke-width="0"/>

<!-- Association CREE -->
<g>
	<line x1="309" y1="71" x2="179" y2="71" stroke="#000000" stroke-width="1"/>
	<line x1="65" y1="71" x2="179" y2="71" stroke="#000000" stroke-width="1"/>
	<g>
		<path d="M190 45 a14 14 90 0 1 14 14 V71 h-50 V59 a14 14 90 0 1 14 -14" fill="#FFFFFF" stroke="#FFFFFF" stroke-width="0"/>
		<path d="M204 71 v12 a14 14 90 0 1 -14 14 H168 a14 14 90 0 1 -14 -14 V71 H50" fill="#FFFFFF" stroke="#FFFFFF" stroke-width="0"/>
		<rect x="154" y="45" width="50" height="52" fill="none" rx="14" stroke="#000000" stroke-width="1.5"/>
		<line x1="154" y1="71" x2="204" y2="71" stroke="#000000" stroke-width="1"/>
		<text x="162" y="63.6" fill="#000000" font-family="Courier New" font-size="14">cree</text>
	</g>
	<text x="242" y="87" fill="#000000" font-family="Courier New" font-size="12">1,1</text>
	<text x="126" y="63" fill="#000000" font-family="Courier New" font-size="12">0,N</text>
</g>

<!-- Association ACHETE -->
<g>
	<line x1="309" y1="295" x2="179" y2="192" stroke="#000000" stroke-width="1"/>
	<line x1="65" y1="71" x2="179" y2="192" stroke="#000000" stroke-width="1"/>
	<g>
		<path d="M215 157 a14 14 90 0 1 14 14 V183 h-100 V171 a14 14 90 0 1 14 -14" fill="#FFFFFF" stroke="#FFFFFF" stroke-width="0"/>
		<path d="M229 183 v30 a14 14 90 0 1 -14 14 H143 a14 14 90 0 1 -14 -14 V183 H100" fill="#FFFFFF" stroke="#FFFFFF" stroke-width="0"/>
		<rect x="129" y="157" width="100" height="70" fill="none" rx="14" stroke="#000000" stroke-width="1.5"/>
		<line x1="129" y1="183" x2="229" y2="183" stroke="#000000" stroke-width="1"/>
		<text x="153" y="175.6" fill="#000000" font-family="Courier New" font-size="14">achete</text>
		<text x="136" y="201.6" fill="#000000" font-family="Courier New" font-size="14">prix_achat</text>
		<text x="136" y="219.6" fill="#000000" font-family="Courier New" font-size="14">date_achat</text>
	</g>
	<text x="246" y="277.35" fill="#000000" font-family="Courier New" font-size="12">0,N</text>
	<text x="126" y="129.21" fill="#000000" font-family="Courier New" font-size="12">0,N</text>
</g>

<!-- Association CONTIENT -->
<g>
	<line x1="309" y1="71" x2="309" y2="192" stroke="#000000" stroke-width="1"/>
	<line x1="309" y1="295" x2="309" y2="192" stroke="#000000" stroke-width="1"/>
	<g>
		<path d="M336 166 a14 14 90 0 1 14 14 V192 h-82 V180 a14 14 90 0 1 14 -14" fill="#FFFFFF" stroke="#FFFFFF" stroke-width="0"/>
		<path d="M350 192 v12 a14 14 90 0 1 -14 14 H282 a14 14 90 0 1 -14 -14 V192 H82" fill="#FFFFFF" stroke="#FFFFFF" stroke-width="0"/>
		<rect x="268" y="166" width="82" height="52" fill="none" rx="14" stroke="#000000" stroke-width="1.5"/>
		<line x1="268" y1="192" x2="350" y2="192" stroke="#000000" stroke-width="1"/>
		<text x="275" y="184.6" fill="#000000" font-family="Courier New" font-size="14">contient</text>
	</g>
	<text x="314" y="122" fill="#000000" font-family="Courier New" font-size="12">1,N</text>
	<text x="314" y="234" fill="#000000" font-family="Courier New" font-size="12">0,N</text>
</g>

<!-- Association CLASSE -->
<g>
	<line x1="309" y1="295" x2="179" y2="295" stroke="#000000" stroke-width="1"/>
	<line x1="65" y1="295" x2="179" y2="295" stroke="#000000" stroke-width="1"/>
	<g>
		<path d="M198 269 a14 14 90 0 1 14 14 V295 h-66 V283 a14 14 90 0 1 14 -14" fill="#FFFFFF" stroke="#FFFFFF" stroke-width="0"/>
		<path d="M212 295 v12 a14 14 90 0 1 -14 14 H160 a14 14 90 0 1 -14 -14 V295 H66" fill="#FFFFFF" stroke="#FFFFFF" stroke-width="0"/>
		<rect x="146" y="269" width="66" height="52" fill="none" rx="14" stroke="#000000" stroke-width="1.5"/>
		<line x1="146" y1="295" x2="212" y2="295" stroke="#000000" stroke-width="1"/>
		<text x="153" y="287.6" fill="#000000" font-family="Courier New" font-size="14">classe</text>
	</g>
	<text x="246" y="311" fill="#000000" font-family="Courier New" font-size="12">1,N</text>
	<text x="97" y="311" fill="#000000" font-family="Courier New" font-size="12">0,N</text>
</g>

<!-- Association APPARTIENT -->
<g>
	<line x1="309" y1="416" x2="427" y2="295" stroke="#000000" stroke-width="1"/>
	<line x1="309" y1="295" x2="427" y2="295" stroke="#000000" stroke-width="1"/>
	<g>
		<path d="M463 269 a14 14 90 0 1 14 14 V295 h-100 V283 a14 14 90 0 1 14 -14" fill="#FFFFFF" stroke="#FFFFFF" stroke-width="0"/>
		<path d="M477 295 v12 a14 14 90 0 1 -14 14 H391 a14 14 90 0 1 -14 -14 V295 H100" fill="#FFFFFF" stroke="#FFFFFF" stroke-width="0"/>
		<rect x="377" y="269" width="100" height="52" fill="none" rx="14" stroke="#000000" stroke-width="1.5"/>
		<line x1="377" y1="295" x2="477" y2="295" stroke="#000000" stroke-width="1"/>
		<text x="385" y="287.6" fill="#000000" font-family="Courier New" font-size="14">appartient</text>
	</g>
	<text x="330.85" y="364" fill="#000000" font-family="Courier New" font-size="12">0,N</text>
	<text x="349" y="311" fill="#000000" font-family="Courier New" font-size="12">1,1</text>
</g>

<!-- Association PRODUIT -->
<g>
	<line x1="309" y1="416" x2="179" y2="416" stroke="#000000" stroke-width="1"/>
	<line x1="65" y1="416" x2="179" y2="416" stroke="#000000" stroke-width="1"/>
	<g>
		<path d="M202 390 a14 14 90 0 1 14 14 V416 h-74 V404 a14 14 90 0 1 14 -14" fill="#FFFFFF" stroke="#FFFFFF" stroke-width="0"/>
		<path d="M216 416 v12 a14 14 90 0 1 -14 14 H156 a14 14 90 0 1 -14 -14 V416 H74" fill="#FFFFFF" stroke="#FFFFFF" stroke-width="0"/>
		<rect x="142" y="390" width="74" height="52" fill="none" rx="14" stroke="#000000" stroke-width="1.5"/>
		<line x1="142" y1="416" x2="216" y2="416" stroke="#000000" stroke-width="1"/>
		<text x="149" y="408.6" fill="#000000" font-family="Courier New" font-size="14">produit</text>
	</g>
	<text x="221" y="432" fill="#000000" font-family="Courier New" font-size="12">1,1</text>
	<text x="105" y="432" fill="#000000" font-family="Courier New" font-size="12">0,N</text>
</g>

<!-- Entity UTILISATEUR -->
<g>
	<g>
		<rect x="9" y="9" width="112" height="26" fill="#FFFFFF" stroke="none" stroke-width="0" opacity="1"/>
		<rect x="9" y="35" width="112" height="98" fill="#FFFFFF" stroke="none" stroke-width="0" opacity="1"/>
		<rect x="9" y="9" width="112" height="124" fill="none" stroke="#000000" stroke-width="1.5" opacity="1"/>
		<line x1="9" y1="35" x2="121" y2="35" stroke="#000000" stroke-width="1"/>
	</g>
	<text x="18" y="27.6" fill="#000000" font-family="Courier New" font-size="14">utilisateur</text>
	<text x="14" y="53.6" fill="#000000" font-family="Courier New" font-size="14">id</text>
	<line x1="14" y1="56" x2="32" y2="56" stroke="#000000" stroke-width="1"/>
	<text x="14" y="71.6" fill="#000000" font-family="Courier New" font-size="14">nom</text>
	<text x="14" y="89.6" fill="#000000" font-family="Courier New" font-size="14">prenom</text>
	<text x="14" y="107.6" fill="#000000" font-family="Courier New" font-size="14">email</text>
	<text x="14" y="125.6" fill="#000000" font-family="Courier New" font-size="14">mot_de_passe</text>
</g>

<!-- Entity PLAYLIST -->
<g>
	<g>
		<rect x="270" y="36" width="78" height="26" fill="#FFFFFF" stroke="none" stroke-width="0" opacity="1"/>
		<rect x="270" y="62" width="78" height="44" fill="#FFFFFF" stroke="none" stroke-width="0" opacity="1"/>
		<rect x="270" y="36" width="78" height="70" fill="none" stroke="#000000" stroke-width="1.5" opacity="1"/>
		<line x1="270" y1="62" x2="348" y2="62" stroke="#000000" stroke-width="1"/>
	</g>
	<text x="275" y="54.6" fill="#000000" font-family="Courier New" font-size="14">playlist</text>
	<text x="275" y="80.6" fill="#000000" font-family="Courier New" font-size="14">id</text>
	<line x1="275" y1="83" x2="293" y2="83" stroke="#000000" stroke-width="1"/>
	<text x="275" y="98.6" fill="#000000" font-family="Courier New" font-size="14">nom</text>
</g>

<!-- Entity GENRE -->
<g>
	<g>
		<rect x="38" y="260" width="54" height="26" fill="#FFFFFF" stroke="none" stroke-width="0" opacity="1"/>
		<rect x="38" y="286" width="54" height="44" fill="#FFFFFF" stroke="none" stroke-width="0" opacity="1"/>
		<rect x="38" y="260" width="54" height="70" fill="none" stroke="#000000" stroke-width="1.5" opacity="1"/>
		<line x1="38" y1="286" x2="92" y2="286" stroke="#000000" stroke-width="1"/>
	</g>
	<text x="44" y="278.6" fill="#000000" font-family="Courier New" font-size="14">genre</text>
	<text x="43" y="304.6" fill="#000000" font-family="Courier New" font-size="14">id</text>
	<line x1="43" y1="307" x2="61" y2="307" stroke="#000000" stroke-width="1"/>
	<text x="43" y="322.6" fill="#000000" font-family="Courier New" font-size="14">nom</text>
</g>

<!-- Entity MUSIQUE -->
<g>
	<g>
		<rect x="274" y="242" width="70" height="26" fill="#FFFFFF" stroke="none" stroke-width="0" opacity="1"/>
		<rect x="274" y="268" width="70" height="80" fill="#FFFFFF" stroke="none" stroke-width="0" opacity="1"/>
		<rect x="274" y="242" width="70" height="106" fill="none" stroke="#000000" stroke-width="1.5" opacity="1"/>
		<line x1="274" y1="268" x2="344" y2="268" stroke="#000000" stroke-width="1"/>
	</g>
	<text x="279" y="260.6" fill="#000000" font-family="Courier New" font-size="14">musique</text>
	<text x="279" y="286.6" fill="#000000" font-family="Courier New" font-size="14">id</text>
	<line x1="279" y1="289" x2="297" y2="289" stroke="#000000" stroke-width="1"/>
	<text x="279" y="304.6" fill="#000000" font-family="Courier New" font-size="14">nom</text>
	<text x="279" y="322.6" fill="#000000" font-family="Courier New" font-size="14">duree</text>
	<text x="279" y="340.6" fill="#000000" font-family="Courier New" font-size="14">prix</text>
</g>

<!-- Entity ARTISTE -->
<g>
	<g>
		<rect x="30" y="372" width="70" height="26" fill="#FFFFFF" stroke="none" stroke-width="0" opacity="1"/>
		<rect x="30" y="398" width="70" height="62" fill="#FFFFFF" stroke="none" stroke-width="0" opacity="1"/>
		<rect x="30" y="372" width="70" height="88" fill="none" stroke="#000000" stroke-width="1.5" opacity="1"/>
		<line x1="30" y1="398" x2="100" y2="398" stroke="#000000" stroke-width="1"/>
	</g>
	<text x="35" y="390.6" fill="#000000" font-family="Courier New" font-size="14">artiste</text>
	<text x="35" y="416.6" fill="#000000" font-family="Courier New" font-size="14">id</text>
	<line x1="35" y1="419" x2="53" y2="419" stroke="#000000" stroke-width="1"/>
	<text x="35" y="434.6" fill="#000000" font-family="Courier New" font-size="14">nom</text>
	<text x="35" y="452.6" fill="#000000" font-family="Courier New" font-size="14">prenom</text>
</g>

<!-- Entity ALBUM -->
<g>
	<g>
		<rect x="249" y="372" width="120" height="26" fill="#FFFFFF" stroke="none" stroke-width="0" opacity="1"/>
		<rect x="249" y="398" width="120" height="62" fill="#FFFFFF" stroke="none" stroke-width="0" opacity="1"/>
		<rect x="249" y="372" width="120" height="88" fill="none" stroke="#000000" stroke-width="1.5" opacity="1"/>
		<line x1="249" y1="398" x2="369" y2="398" stroke="#000000" stroke-width="1"/>
	</g>
	<text x="288" y="390.6" fill="#000000" font-family="Courier New" font-size="14">album</text>
	<text x="254" y="416.6" fill="#000000" font-family="Courier New" font-size="14">id</text>
	<line x1="254" y1="419" x2="272" y2="419" stroke="#000000" stroke-width="1"/>
	<text x="254" y="434.6" fill="#000000" font-family="Courier New" font-size="14">nom</text>
	<text x="254" y="452.6" fill="#000000" font-family="Courier New" font-size="14">date_parution</text>
</g>
</svg>